<svg width="1410" height="1410" viewBox="0 0 1410 1410" fill="none" xmlns="http://www.w3.org/2000/svg">
<g clip-path="url(#clip0_42_5)">
<rect width="1410" height="1410" rx="705" fill="#256A65"/>
<circle cx="670.912" cy="415.672" r="11.7562" fill="white"/>
<circle cx="463.239" cy="332.717" r="16.7167" fill="white"/>
<circle cx="586.312" cy="352.266" r="14.3119" fill="white"/>
<circle cx="461.58" cy="451.301" r="16.7167" fill="white"/>
<circle cx="461.345" cy="667.153" r="9.71164" fill="white"/>
<circle cx="255.717" cy="534.106" r="16.7167" fill="white"/>
<circle cx="18.401" cy="18.401" r="18.401" transform="matrix(1 0 0 -1 516.037 957.991)" fill="white"/>
<circle cx="9.71164" cy="9.71164" r="9.71164" transform="matrix(1 0 0 -1 456.745 885.409)" fill="white"/>
<circle cx="9.71164" cy="9.71164" r="9.71164" transform="matrix(1 0 0 -1 585.552 1018.31)" fill="white"/>
<circle cx="22.4481" cy="22.4481" r="22.4481" transform="matrix(1 0 0 -1 255.356 667.58)" fill="white"/>
<circle cx="667.846" cy="1078.11" r="15.8453" fill="white"/>
<circle cx="667.779" cy="809.182" r="30.09" fill="white"/>
<circle cx="564.596" cy="792.893" r="20.9567" fill="white"/>
<circle cx="564.529" cy="499.432" r="30.09" fill="white"/>
<circle cx="667.846" cy="540.39" r="15.8453" fill="white"/>
<circle cx="392.49" cy="809.444" r="22.4901" fill="white"/>
<circle cx="461.578" cy="562.595" r="18.6272" fill="white"/>
<circle cx="347.588" cy="376.541" r="18.6272" fill="white"/>
<circle cx="355.54" cy="470.364" r="11.2451" fill="white"/>
<circle cx="668.374" cy="667.681" r="14.3286" fill="white"/>
<circle cx="355.029" cy="668.175" r="7.66709" fill="white"/>
<circle cx="668.374" cy="950.852" r="14.3286" fill="white"/>
<circle cx="277.847" cy="450.941" r="8.17823" fill="white"/>
<circle cx="328.96" cy="741.268" r="8.17823" fill="white"/>
<circle cx="564.101" cy="646.213" r="14.3286" fill="white"/>
<circle cx="355.556" cy="570.564" r="14.3286" fill="white"/>
<circle cx="462.056" cy="766.842" r="14.3286" fill="white"/>
<mask id="path-29-outside-1_42_5" maskUnits="userSpaceOnUse" x="719.002" y="318.292" width="463" height="800" fill="black">
<rect fill="white" x="719.002" y="318.292" width="463" height="800"/>
<path d="M781.414 395.239C870.37 305.954 1015.22 306 1104.44 395.239C1193.37 484.184 1193.37 629.047 1104.44 717.993L1032.06 790.383L736.352 1086.45L729.002 1093.81V1066.93L1018.62 776.958L1091 704.559C1172.2 623.351 1172.52 491.236 1091.96 409.63L1091 408.673C1009.18 326.833 876.364 326.833 794.851 408.673L729.002 474.532V447.659L781.414 395.239Z"/>
</mask>
<path d="M781.414 395.239C870.37 305.954 1015.22 306 1104.44 395.239C1193.37 484.184 1193.37 629.047 1104.44 717.993L1032.06 790.383L736.352 1086.45L729.002 1093.81V1066.93L1018.62 776.958L1091 704.559C1172.2 623.351 1172.52 491.236 1091.96 409.63L1091 408.673C1009.18 326.833 876.364 326.833 794.851 408.673L729.002 474.532V447.659L781.414 395.239Z" fill="white"/>
<path d="M781.414 395.239L788.486 402.309L788.492 402.303L788.498 402.297L781.414 395.239ZM1104.44 395.239L1111.51 388.168V388.168L1104.44 395.239ZM1104.44 717.993L1111.51 725.063L1111.51 725.063L1104.44 717.993ZM1032.06 790.383L1024.99 783.313L1024.99 783.317L1032.06 790.383ZM736.352 1086.45L743.427 1093.52L743.427 1093.52L736.352 1086.45ZM729.002 1093.81H719.002V1117.98L736.077 1100.88L729.002 1093.81ZM729.002 1066.93L721.927 1059.86L719.002 1062.79V1066.93H729.002ZM1018.62 776.958L1011.55 769.887L1011.54 769.891L1018.62 776.958ZM1091 704.559L1098.08 711.63V711.63L1091 704.559ZM1091.96 409.63L1099.07 402.605L1099.06 402.593L1099.05 402.581L1091.96 409.63ZM1091 408.673L1098.1 401.624L1098.09 401.613L1098.08 401.603L1091 408.673ZM794.851 408.673L801.922 415.744L801.929 415.737L801.936 415.73L794.851 408.673ZM729.002 474.532H719.002V498.676L736.074 481.602L729.002 474.532ZM729.002 447.659L721.93 440.588L719.002 443.517V447.659H729.002ZM781.414 395.239L788.498 402.297C873.537 316.943 1012.04 316.968 1097.37 402.309L1104.44 395.239L1111.51 388.168C1018.39 295.032 867.202 294.965 774.33 388.181L781.414 395.239ZM1104.44 395.239L1097.37 402.309C1182.4 487.35 1182.4 625.882 1097.37 710.922L1104.44 717.993L1111.51 725.063C1204.35 632.212 1204.35 481.019 1111.51 388.168L1104.44 395.239ZM1104.44 717.993L1097.37 710.922L1024.99 783.313L1032.06 790.383L1039.13 797.454L1111.51 725.063L1104.44 717.993ZM1032.06 790.383L1024.99 783.317L729.276 1079.39L736.352 1086.45L743.427 1093.52L1039.14 797.45L1032.06 790.383ZM736.352 1086.45L729.276 1079.39L721.927 1086.75L729.002 1093.81L736.077 1100.88L743.427 1093.52L736.352 1086.45ZM729.002 1093.81H739.002V1066.93H729.002H719.002V1093.81H729.002ZM729.002 1066.93L736.077 1073.99L1025.69 784.024L1018.62 776.958L1011.54 769.891L721.927 1059.86L729.002 1066.93ZM1018.62 776.958L1025.69 784.028L1098.08 711.63L1091 704.559L1083.93 697.489L1011.55 769.887L1018.62 776.958ZM1091 704.559L1098.08 711.63C1183.16 626.532 1183.49 488.12 1099.07 402.605L1091.96 409.63L1084.84 416.656C1161.54 494.352 1161.24 620.171 1083.93 697.489L1091 704.559ZM1091.96 409.63L1099.05 402.581L1098.1 401.624L1091 408.673L1083.91 415.723L1084.86 416.68L1091.96 409.63ZM1091 408.673L1098.08 401.603C1012.35 315.864 873.194 315.844 787.765 401.617L794.851 408.673L801.936 415.73C879.533 337.821 1006 337.802 1083.93 415.744L1091 408.673ZM794.851 408.673L787.779 401.603L721.93 467.461L729.002 474.532L736.074 481.602L801.922 415.744L794.851 408.673ZM729.002 474.532H739.002V447.659H729.002H719.002V474.532H729.002ZM729.002 447.659L736.074 454.729L788.486 402.309L781.414 395.239L774.342 388.168L721.93 440.588L729.002 447.659Z" fill="white" mask="url(#path-29-outside-1_42_5)"/>
</g>
<defs>
<clipPath id="clip0_42_5">
<rect width="1410" height="1410" fill="white"/>
</clipPath>
</defs>
</svg>
