<svg width="1410" height="1410" viewBox="0 0 1410 1410" fill="none" xmlns="http://www.w3.org/2000/svg">
<g clip-path="url(#clip0_42_2)">
<circle cx="705" cy="705" r="705" fill="#F1A100"/>
<path d="M662.371 647.779C669.857 647.779 675.847 653.976 675.848 661.522C675.848 669.069 669.857 675.266 662.371 675.266C654.885 675.266 648.894 669.069 648.894 661.522C648.894 653.976 654.885 647.779 662.371 647.779Z" fill="white" stroke="white" stroke-width="4"/>
<path d="M662.371 377.818C671.004 377.818 677.847 384.954 677.848 393.561C677.848 402.169 671.004 409.304 662.371 409.305C653.737 409.305 646.894 402.169 646.894 393.561C646.894 384.954 653.737 377.818 662.371 377.818Z" fill="white" stroke="white" stroke-width="8"/>
<circle cx="662.638" cy="1092.29" r="20.8177" fill="white"/>
<circle cx="662.638" cy="1092.29" r="20.8177" stroke="white"/>
<circle cx="662.638" cy="916.673" r="22.8177" fill="white" stroke="white" stroke-width="4"/>
<circle cx="662.638" cy="571.846" r="23.3177" fill="white" stroke="white" stroke-width="5"/>
<circle cx="662.371" cy="746.128" r="19.7467" fill="white" stroke="white" stroke-width="8"/>
<circle cx="662.371" cy="478.167" r="17.7467" fill="white" stroke="white" stroke-width="4"/>
<circle cx="662.37" cy="828.865" r="11.8751" fill="white" stroke="white" stroke-width="4"/>
<circle cx="662.37" cy="1004.48" r="13.8751" fill="white" stroke="white" stroke-width="8"/>
<path d="M249.22 522.339C256.706 522.339 262.696 528.536 262.696 536.083C262.696 543.629 256.706 549.826 249.22 549.826C241.734 549.826 235.743 543.629 235.743 536.083C235.743 528.536 241.734 522.339 249.22 522.339Z" fill="white" stroke="white" stroke-width="4"/>
<circle cx="249.487" cy="721.841" r="22.8177" fill="white" stroke="white" stroke-width="4"/>
<circle cx="233.74" cy="618.553" r="9.73991" fill="white" stroke="white" stroke-width="4"/>
<circle cx="276.74" cy="446.74" r="9.73991" fill="white" stroke="white" stroke-width="4"/>
<circle cx="389.747" cy="954.747" r="19.7467" fill="white" stroke="white" stroke-width="8"/>
<circle cx="400.282" cy="700.756" r="13.0778" fill="white"/>
<circle cx="400.282" cy="700.756" r="13.0778" stroke="white"/>
<circle cx="400.549" cy="785.361" r="14.142" fill="white" stroke="white" stroke-width="8"/>
<path d="M410.747 497C421.653 497 430.493 505.841 430.493 516.747C430.493 527.653 421.653 536.493 410.747 536.493C399.842 536.493 391 527.653 391 516.747C391 505.841 399.842 497 410.747 497Z" fill="white" stroke="white" stroke-width="8"/>
<circle cx="511.309" cy="439.201" r="17.7467" fill="white" stroke="white" stroke-width="4"/>
<circle cx="400.5" cy="318.5" r="10.5" fill="white" stroke="white" stroke-width="8"/>
<circle cx="387.471" cy="436.532" r="14.0778" fill="white" stroke="white" stroke-width="2"/>
<circle cx="573.496" cy="630.563" r="11.7433" fill="white"/>
<circle cx="573.496" cy="630.563" r="11.7433" stroke="white"/>
<circle cx="9.07438" cy="9.07438" r="13.0744" transform="matrix(1 0 0 -1 447.521 954.572)" fill="white" stroke="white" stroke-width="8"/>
<circle cx="9.07438" cy="9.07438" r="9.07438" transform="matrix(1 0 0 -1 508.907 957.241)" fill="white"/>
<circle cx="9.07438" cy="9.07438" r="9.07438" transform="matrix(1 0 0 -1 508.907 957.241)" stroke="white"/>
<circle cx="5.33787" cy="5.33787" r="9.33787" transform="matrix(1 0 0 -1 438.447 1019.69)" fill="white" stroke="white" stroke-width="8"/>
<circle cx="15.4798" cy="15.4798" r="19.4798" transform="matrix(1 0 0 -1 558.016 1125.92)" fill="white" stroke="white" stroke-width="8"/>
<circle cx="584.818" cy="968.818" r="20.8177" fill="white"/>
<circle cx="584.818" cy="968.818" r="20.8177" stroke="white"/>
<path d="M573.495 318.297C584.992 318.297 594.313 327.738 594.313 339.382C594.313 351.027 584.992 360.466 573.495 360.466C561.998 360.466 552.678 351.027 552.677 339.382C552.677 327.738 561.998 318.298 573.495 318.297Z" fill="white"/>
<path d="M573.495 318.297C584.992 318.297 594.313 327.738 594.313 339.382C594.313 351.027 584.992 360.466 573.495 360.466C561.998 360.466 552.678 351.027 552.677 339.382C552.677 327.738 561.998 318.298 573.495 318.297Z" stroke="white"/>
<circle cx="584.875" cy="848.875" r="10.8751" fill="white" stroke="white" stroke-width="2"/>
<circle cx="554.012" cy="501.119" r="13.8751" fill="white" stroke="white" stroke-width="8"/>
<circle cx="339.963" cy="891.318" r="13.8751" fill="white" stroke="white" stroke-width="8"/>
<circle cx="6.13855" cy="6.13855" r="10.1386" transform="matrix(1 0 0 -1 271.371 802.442)" fill="white" stroke="white" stroke-width="8"/>
<circle cx="310.071" cy="532.613" r="10.8751" fill="white" stroke="white" stroke-width="2"/>
<circle cx="449" cy="462" r="7" fill="white" stroke="white" stroke-width="4"/>
<circle cx="503.836" cy="659.654" r="15.4764" fill="white" stroke="white" stroke-width="8"/>
<circle cx="484.086" cy="736.52" r="11.4764" fill="white"/>
<circle cx="484.086" cy="736.52" r="11.4764" stroke="white"/>
<circle cx="492.627" cy="889.716" r="11.9764" fill="white" stroke="white"/>
<path d="M484.087 1075.47C494.927 1075.47 503.832 1066.81 503.833 1055.99C503.833 1045.17 494.927 1036.51 484.087 1036.51C473.245 1036.51 464.339 1045.17 464.339 1055.99C464.34 1066.81 473.246 1075.47 484.087 1075.47Z" fill="white" stroke="white" stroke-width="8"/>
<path d="M503.836 792.571C513.19 792.571 520.913 800.02 520.914 809.381C520.914 818.743 513.19 826.193 503.836 826.193C494.483 826.193 486.758 818.743 486.758 809.381C486.758 800.02 494.483 792.571 503.836 792.571Z" fill="white" stroke="white" stroke-width="8"/>
<path d="M484.087 292.175C491.576 292.176 497.664 298.125 497.664 305.486C497.664 312.847 491.576 318.797 484.087 318.797C476.598 318.797 470.509 312.847 470.509 305.486C470.509 298.125 476.598 292.175 484.087 292.175Z" fill="white" stroke="white"/>
<path d="M330.818 359C344.572 359 355.636 370.279 355.636 384.085C355.636 397.89 344.572 409.169 330.818 409.169C317.064 409.169 306 397.89 306 384.085C306 370.279 317.063 359 330.818 359Z" fill="white" stroke="white" stroke-width="8"/>
<circle cx="310.071" cy="669.796" r="13.8751" fill="white" stroke="white" stroke-width="8"/>
<circle cx="377.862" cy="581.721" r="13.8751" fill="white" stroke="white" stroke-width="8"/>
<circle cx="339.963" cy="818.723" r="13.8751" fill="white" stroke="white" stroke-width="8"/>
<mask id="path-45-inside-1_42_2" fill="white">
<path d="M1179.09 619.483C1187.12 596.121 1185.55 571.03 1174.69 548.838C1165.71 530.459 1151.24 515.913 1133.25 506.896C1143.69 486.54 1145.6 463.334 1138.6 441.551C1125.45 400.547 1084.14 376.267 1042.87 383.151C1042.2 350.466 1026.08 318.608 996.82 299.21C973.869 283.991 946.37 278.614 919.369 284.087C893.831 289.255 871.657 303.556 856.441 324.522C834.383 315.821 809.731 315.765 786.555 325.235C748.311 340.852 724.557 377.798 724.557 421.649V1053.47C724.557 1101.35 764.302 1127.63 801.696 1128.04C801.997 1128.05 802.314 1128.05 802.614 1128.05C833.95 1128.05 867.387 1110.08 878.746 1071.04C882.596 1071.58 886.425 1071.83 890.23 1071.83C926.534 1071.83 960.043 1047.96 970.557 1011.38C971.76 1007.18 972.614 1002.98 973.151 998.79C1035.75 985.455 1078.4 925.587 1069.33 861.265C1067.75 850.107 1064.7 839.526 1060.42 829.643C1062.93 829.835 1065.42 829.952 1067.92 829.952C1081.95 829.952 1095.92 826.924 1109.04 820.886C1132.96 809.885 1151.16 790.231 1160.29 765.545C1172.98 731.245 1165.85 693.757 1142.33 666.782C1159.47 655.588 1172.34 639.153 1179.09 619.479V619.483ZM947.814 1004.84C939.55 1033.62 911.442 1051.43 882.608 1047.68C882.676 1046.41 882.752 1045.14 882.78 1043.84C882.933 1037.3 877.748 1031.89 871.216 1031.74C864.612 1031.6 859.267 1036.78 859.123 1043.31C858.113 1088.45 828.232 1104.4 802.662 1104.4H801.969C775.264 1104.09 748.219 1086.51 748.219 1053.48V808.213C769.534 832.59 800.666 846.911 833.341 846.903C841.941 846.903 850.642 845.917 859.295 843.856C889.031 854.076 906.045 885.951 897.456 916.61C888.546 948.388 855.434 967 823.645 958.087C817.358 956.323 810.826 959.996 809.062 966.286C807.298 972.581 810.97 979.104 817.262 980.868C824.768 982.973 832.334 983.976 839.78 983.976C872.395 983.976 902.688 964.699 916.153 934.324C942.028 946.717 956.001 976.37 947.818 1004.84L947.814 1004.84ZM972.658 974.614C968.018 946.945 949.53 922.604 922.613 911.322C926.69 880.442 913.045 850.179 888.406 832.513C910.094 820.373 926.674 801.597 936.394 779.686C989.591 773.716 1038.38 811.24 1045.9 864.585C1053.01 914.994 1020.78 962.032 972.658 974.618V974.614ZM1121.84 651.294C1107.56 658.278 1091.68 660.078 1076.41 656.59C1083.21 622.326 1064.94 586.891 1031.38 573.335C1025.32 570.894 1018.42 573.825 1015.98 579.883C1013.53 585.941 1016.46 592.841 1022.52 595.283C1048.38 605.711 1060.93 635.244 1050.5 661.105C1045.44 673.63 1035.81 683.437 1023.38 688.721C1010.95 694.006 997.201 694.13 984.675 689.078C978.616 686.628 971.719 689.551 969.27 695.617C966.828 701.672 969.755 708.568 975.817 711.017C984.799 714.642 994.21 716.446 1003.61 716.446C1013.02 716.446 1023.3 714.457 1032.63 710.496C1047.8 704.053 1060.11 693.011 1068.1 678.914C1075.88 680.971 1083.79 682.002 1091.68 682.002C1101.2 682.002 1110.69 680.478 1119.86 677.515C1141.32 698.207 1148.52 729.184 1138.1 757.346C1131.17 776.11 1117.34 791.033 1099.16 799.4C1081.7 807.415 1062.25 808.437 1044.12 802.359C1020.57 772.541 983.777 754.315 944.032 755.441C947.545 737.415 946.715 718.286 940.716 699.595C921.698 640.352 858.036 607.616 798.793 626.632C792.57 628.629 789.15 635.284 791.142 641.511C793.147 647.729 799.803 651.161 806.027 649.157C852.84 634.134 903.154 660.014 918.182 706.824C933.206 753.645 907.332 803.955 860.518 818.978C859.728 819.227 858.939 819.439 858.157 819.664C856.797 819.788 855.494 820.149 854.271 820.706C809.298 831.639 762.706 806.056 748.347 761.311C748.315 761.203 748.259 761.119 748.215 761.014V421.649C748.215 387.597 766.334 359.05 795.493 347.13C822.691 336.032 852.655 342.455 873.702 363.91C878.273 368.577 885.775 368.653 890.435 364.074C895.102 359.503 895.17 352.01 890.599 347.343C886.453 343.117 882.034 339.34 877.415 336.004C889.047 321.174 905.383 311.046 924.064 307.273C944.866 303.059 966.054 307.205 983.737 318.932C1020.24 343.137 1030.25 392.533 1006.03 429.034C1002.43 434.483 1003.91 441.824 1009.36 445.436C1011.37 446.767 1013.64 447.405 1015.89 447.405C1019.72 447.405 1023.48 445.545 1025.76 442.113C1032.87 431.379 1037.69 419.78 1040.37 407.909C1072.27 399.064 1105.86 416.974 1116.06 448.78C1121.13 464.565 1119.75 481.396 1112.16 496.151C1104.57 510.897 1091.7 521.815 1075.9 526.887C1060.09 531.951 1043.27 530.563 1028.52 522.982C1013.8 515.412 1002.9 502.574 997.811 486.821C992.305 465.459 978.889 447.457 959.955 436.086C940.829 424.6 918.366 421.256 896.718 426.652C852.026 437.81 824.744 483.233 835.899 527.921C837.246 533.294 842.062 536.89 847.367 536.89C848.313 536.89 849.283 536.774 850.242 536.533C856.577 534.954 860.438 528.531 858.854 522.192C850.867 490.165 870.418 457.601 902.448 449.606C917.965 445.737 934.06 448.139 947.765 456.374C961.479 464.601 971.162 477.684 975.031 493.204C975.064 493.328 975.128 493.445 975.164 493.573C975.204 493.689 975.204 493.821 975.244 493.95C982.245 515.761 997.321 533.546 1017.7 544.019C1030.01 550.354 1043.36 553.549 1056.83 553.549C1065.64 553.549 1074.49 552.178 1083.13 549.411C1097.2 544.897 1109.57 537.01 1119.41 526.518C1134.26 533.049 1146.22 544.484 1153.44 559.222C1161.51 575.733 1162.67 594.405 1156.7 611.793C1150.73 629.182 1138.35 643.211 1121.83 651.282L1121.84 651.294Z"/>
</mask>
<path d="M1179.09 619.483C1187.12 596.121 1185.55 571.03 1174.69 548.838C1165.71 530.459 1151.24 515.913 1133.25 506.896C1143.69 486.54 1145.6 463.334 1138.6 441.551C1125.45 400.547 1084.14 376.267 1042.87 383.151C1042.2 350.466 1026.08 318.608 996.82 299.21C973.869 283.991 946.37 278.614 919.369 284.087C893.831 289.255 871.657 303.556 856.441 324.522C834.383 315.821 809.731 315.765 786.555 325.235C748.311 340.852 724.557 377.798 724.557 421.649V1053.47C724.557 1101.35 764.302 1127.63 801.696 1128.04C801.997 1128.05 802.314 1128.05 802.614 1128.05C833.95 1128.05 867.387 1110.08 878.746 1071.04C882.596 1071.58 886.425 1071.83 890.23 1071.83C926.534 1071.83 960.043 1047.96 970.557 1011.38C971.76 1007.18 972.614 1002.98 973.151 998.79C1035.75 985.455 1078.4 925.587 1069.33 861.265C1067.75 850.107 1064.7 839.526 1060.42 829.643C1062.93 829.835 1065.42 829.952 1067.92 829.952C1081.95 829.952 1095.92 826.924 1109.04 820.886C1132.96 809.885 1151.16 790.231 1160.29 765.545C1172.98 731.245 1165.85 693.757 1142.33 666.782C1159.47 655.588 1172.34 639.153 1179.09 619.479V619.483ZM947.814 1004.84C939.55 1033.62 911.442 1051.43 882.608 1047.68C882.676 1046.41 882.752 1045.14 882.78 1043.84C882.933 1037.3 877.748 1031.89 871.216 1031.74C864.612 1031.6 859.267 1036.78 859.123 1043.31C858.113 1088.45 828.232 1104.4 802.662 1104.4H801.969C775.264 1104.09 748.219 1086.51 748.219 1053.48V808.213C769.534 832.59 800.666 846.911 833.341 846.903C841.941 846.903 850.642 845.917 859.295 843.856C889.031 854.076 906.045 885.951 897.456 916.61C888.546 948.388 855.434 967 823.645 958.087C817.358 956.323 810.826 959.996 809.062 966.286C807.298 972.581 810.97 979.104 817.262 980.868C824.768 982.973 832.334 983.976 839.78 983.976C872.395 983.976 902.688 964.699 916.153 934.324C942.028 946.717 956.001 976.37 947.818 1004.84L947.814 1004.84ZM972.658 974.614C968.018 946.945 949.53 922.604 922.613 911.322C926.69 880.442 913.045 850.179 888.406 832.513C910.094 820.373 926.674 801.597 936.394 779.686C989.591 773.716 1038.38 811.24 1045.9 864.585C1053.01 914.994 1020.78 962.032 972.658 974.618V974.614ZM1121.84 651.294C1107.56 658.278 1091.68 660.078 1076.41 656.59C1083.21 622.326 1064.94 586.891 1031.38 573.335C1025.32 570.894 1018.42 573.825 1015.98 579.883C1013.53 585.941 1016.46 592.841 1022.52 595.283C1048.38 605.711 1060.93 635.244 1050.5 661.105C1045.44 673.63 1035.81 683.437 1023.38 688.721C1010.95 694.006 997.201 694.13 984.675 689.078C978.616 686.628 971.719 689.551 969.27 695.617C966.828 701.672 969.755 708.568 975.817 711.017C984.799 714.642 994.21 716.446 1003.61 716.446C1013.02 716.446 1023.3 714.457 1032.63 710.496C1047.8 704.053 1060.11 693.011 1068.1 678.914C1075.88 680.971 1083.79 682.002 1091.68 682.002C1101.2 682.002 1110.69 680.478 1119.86 677.515C1141.32 698.207 1148.52 729.184 1138.1 757.346C1131.17 776.11 1117.34 791.033 1099.16 799.4C1081.7 807.415 1062.25 808.437 1044.12 802.359C1020.57 772.541 983.777 754.315 944.032 755.441C947.545 737.415 946.715 718.286 940.716 699.595C921.698 640.352 858.036 607.616 798.793 626.632C792.57 628.629 789.15 635.284 791.142 641.511C793.147 647.729 799.803 651.161 806.027 649.157C852.84 634.134 903.154 660.014 918.182 706.824C933.206 753.645 907.332 803.955 860.518 818.978C859.728 819.227 858.939 819.439 858.157 819.664C856.797 819.788 855.494 820.149 854.271 820.706C809.298 831.639 762.706 806.056 748.347 761.311C748.315 761.203 748.259 761.119 748.215 761.014V421.649C748.215 387.597 766.334 359.05 795.493 347.13C822.691 336.032 852.655 342.455 873.702 363.91C878.273 368.577 885.775 368.653 890.435 364.074C895.102 359.503 895.17 352.01 890.599 347.343C886.453 343.117 882.034 339.34 877.415 336.004C889.047 321.174 905.383 311.046 924.064 307.273C944.866 303.059 966.054 307.205 983.737 318.932C1020.24 343.137 1030.25 392.533 1006.03 429.034C1002.43 434.483 1003.91 441.824 1009.36 445.436C1011.37 446.767 1013.64 447.405 1015.89 447.405C1019.72 447.405 1023.48 445.545 1025.76 442.113C1032.87 431.379 1037.69 419.78 1040.37 407.909C1072.27 399.064 1105.86 416.974 1116.06 448.78C1121.13 464.565 1119.75 481.396 1112.16 496.151C1104.57 510.897 1091.7 521.815 1075.9 526.887C1060.09 531.951 1043.27 530.563 1028.52 522.982C1013.8 515.412 1002.9 502.574 997.811 486.821C992.305 465.459 978.889 447.457 959.955 436.086C940.829 424.6 918.366 421.256 896.718 426.652C852.026 437.81 824.744 483.233 835.899 527.921C837.246 533.294 842.062 536.89 847.367 536.89C848.313 536.89 849.283 536.774 850.242 536.533C856.577 534.954 860.438 528.531 858.854 522.192C850.867 490.165 870.418 457.601 902.448 449.606C917.965 445.737 934.06 448.139 947.765 456.374C961.479 464.601 971.162 477.684 975.031 493.204C975.064 493.328 975.128 493.445 975.164 493.573C975.204 493.689 975.204 493.821 975.244 493.95C982.245 515.761 997.321 533.546 1017.7 544.019C1030.01 550.354 1043.36 553.549 1056.83 553.549C1065.64 553.549 1074.49 552.178 1083.13 549.411C1097.2 544.897 1109.57 537.01 1119.41 526.518C1134.26 533.049 1146.22 544.484 1153.44 559.222C1161.51 575.733 1162.67 594.405 1156.7 611.793C1150.73 629.182 1138.35 643.211 1121.83 651.282L1121.84 651.294Z" fill="white" stroke="white" stroke-width="2" mask="url(#path-45-inside-1_42_2)"/>
</g>
<defs>
<clipPath id="clip0_42_2">
<rect width="1410" height="1410" fill="white"/>
</clipPath>
</defs>
</svg>
