<svg width="1410" height="1410" viewBox="0 0 1410 1410" fill="none" xmlns="http://www.w3.org/2000/svg">
<g clip-path="url(#clip0_42_47)">
<rect width="1410" height="1410" rx="705" fill="#3688D8"/>
<circle cx="18.3735" cy="18.3735" r="18.3735" transform="matrix(1 0 0 -1 161 685.614)" fill="white"/>
<circle cx="179.325" cy="711.496" r="8.65935" fill="white"/>
<circle cx="179.574" cy="749.202" r="11.7278" fill="white"/>
<circle cx="18.3735" cy="18.3735" r="18.3735" transform="matrix(1 0 0 -1 588.329 725.392)" fill="white"/>
<circle cx="432.52" cy="920.388" r="24.6283" fill="white"/>
<circle cx="432.52" cy="691.62" r="24.6283" fill="white"/>
<circle cx="432.71" cy="482.374" r="18.3735" fill="white"/>
<circle cx="432.71" cy="837.608" r="18.3735" fill="white"/>
<circle cx="432.508" cy="552.252" r="11.7278" fill="white"/>
<circle cx="432.508" cy="767.729" r="11.7278" fill="white"/>
<circle cx="432.508" cy="615.486" r="11.7278" fill="white"/>
<circle cx="524.29" cy="706.864" r="27.7905" fill="white"/>
<circle cx="18.3735" cy="18.3735" r="18.3735" transform="matrix(1 0 0 -1 323.716 902.203)" fill="white"/>
<circle cx="341.84" cy="710.892" r="11.6801" fill="white"/>
<circle cx="341.839" cy="653.297" r="18.527" fill="white"/>
<circle cx="341.839" cy="768.487" r="18.527" fill="white"/>
<circle cx="341.9" cy="531.321" r="24.6283" fill="white"/>
<circle cx="341.887" cy="826.13" r="11.7278" fill="white"/>
<circle cx="341.887" cy="595.348" r="11.7278" fill="white"/>
<circle cx="257.663" cy="644.437" r="24.5684" fill="white"/>
<circle cx="18.3735" cy="18.3735" r="18.3735" transform="matrix(1 0 0 -1 239.135 847.025)" fill="white"/>
<circle cx="18.3735" cy="18.3735" r="18.3735" transform="matrix(1 0 0 -1 239.135 732.641)" fill="white"/>
<circle cx="257.604" cy="577.52" r="15.2461" fill="white"/>
<circle cx="257.71" cy="771.354" r="11.7278" fill="white"/>
<path d="M841.404 706.431C841.404 638.325 841.404 570.218 841.404 502.112C841.404 477.317 852.183 464.567 872.927 464.815C893.359 465.053 904.881 478.601 904.908 502.552C905.11 638.178 905.312 773.803 905.477 909.419C905.504 932.097 892.525 946.717 872.459 946.91C852.248 947.093 841.193 933.609 841.202 908.989C841.239 841.469 841.211 773.95 841.211 706.431C841.275 706.431 841.331 706.431 841.395 706.431H841.404Z" fill="white"/>
<path d="M964.242 708.401C964.242 654.357 964.187 600.321 964.27 546.276C964.306 522.517 975.196 510.051 995.325 510.289C1015.86 510.536 1027.38 523.094 1027.41 545.928C1027.52 654.008 1027.52 762.089 1027.54 870.169C1027.54 877.236 1027.51 884.313 1023.09 890.427C1013.84 903.214 1001.22 908.631 986.196 904.277C971.823 900.116 964.343 889.923 964.435 874.047C964.746 818.828 964.554 763.62 964.554 708.401H964.251H964.242Z" fill="white"/>
<path d="M1087.97 708.401C1087.97 669.664 1087.87 630.927 1088.01 592.19C1088.1 569.879 1099.58 556.68 1118.1 557.037C1136.73 557.404 1148.6 570.915 1148.62 592.438C1148.69 669.912 1148.62 747.386 1148.55 824.851C1148.55 831.845 1149.03 838.93 1144.79 845.255C1135.77 858.702 1122.88 862.873 1107.98 859.004C1093.62 855.283 1087.76 844.705 1087.87 829.883C1088.17 789.386 1087.97 748.889 1087.98 708.392L1087.97 708.401Z" fill="white"/>
<path d="M1206.76 706.309C1206.76 698.719 1206.4 691.111 1206.85 683.549C1207.54 671.807 1214.45 665.51 1225.89 664.657C1237.56 663.786 1245.98 669.845 1247 681.028C1248.53 697.812 1248.62 714.898 1247.44 731.718C1246.66 742.91 1238.25 749.428 1226.88 749.006C1215.79 748.594 1208.01 742.599 1207.03 730.811C1206.35 722.699 1206.9 714.486 1206.9 706.309H1206.75H1206.76Z" fill="white"/>
<rect x="661.803" y="669.005" width="127.272" height="75.719" rx="37" fill="white"/>
</g>
<defs>
<clipPath id="clip0_42_47">
<rect width="1410" height="1410" fill="white"/>
</clipPath>
</defs>
</svg>
